<mxfile host="app.diagrams.net" agent="Mozilla/5.0 (Windows NT 10.0; Win64; x64) AppleWebKit/537.36 (KHTML, like Gecko) Chrome/137.0.0.0 Safari/537.36" version="27.1.6">
  <diagram name="Page-1" id="BYCU1WEVfLiUHNMPXC49">
    <mxGraphModel dx="1042" dy="562" grid="1" gridSize="10" guides="1" tooltips="1" connect="1" arrows="1" fold="1" page="1" pageScale="1" pageWidth="850" pageHeight="1100" math="0" shadow="0">
      <root>
        <mxCell id="0" />
        <mxCell id="1" parent="0" />
        <mxCell id="nkAx73ECr3QVB_K9nO94-1" value="User is in referral page." style="ellipse;whiteSpace=wrap;html=1;" vertex="1" parent="1">
          <mxGeometry x="305" y="40" width="120" height="80" as="geometry" />
        </mxCell>
        <mxCell id="nkAx73ECr3QVB_K9nO94-33" value="" style="edgeStyle=orthogonalEdgeStyle;rounded=0;orthogonalLoop=1;jettySize=auto;html=1;" edge="1" parent="1" source="nkAx73ECr3QVB_K9nO94-2" target="nkAx73ECr3QVB_K9nO94-20">
          <mxGeometry relative="1" as="geometry" />
        </mxCell>
        <mxCell id="nkAx73ECr3QVB_K9nO94-2" value="Decides to invite someone.&amp;nbsp;" style="rounded=1;whiteSpace=wrap;html=1;" vertex="1" parent="1">
          <mxGeometry x="270" y="150" width="195" height="60" as="geometry" />
        </mxCell>
        <mxCell id="nkAx73ECr3QVB_K9nO94-3" value="" style="endArrow=classic;html=1;rounded=0;exitX=0.448;exitY=1.003;exitDx=0;exitDy=0;exitPerimeter=0;entryX=0.5;entryY=0;entryDx=0;entryDy=0;" edge="1" parent="1" source="nkAx73ECr3QVB_K9nO94-1" target="nkAx73ECr3QVB_K9nO94-2">
          <mxGeometry width="50" height="50" relative="1" as="geometry">
            <mxPoint x="400" y="320" as="sourcePoint" />
            <mxPoint x="450" y="270" as="targetPoint" />
          </mxGeometry>
        </mxCell>
        <mxCell id="nkAx73ECr3QVB_K9nO94-37" value="" style="edgeStyle=orthogonalEdgeStyle;rounded=0;orthogonalLoop=1;jettySize=auto;html=1;" edge="1" parent="1" source="nkAx73ECr3QVB_K9nO94-6" target="nkAx73ECr3QVB_K9nO94-20">
          <mxGeometry relative="1" as="geometry" />
        </mxCell>
        <mxCell id="nkAx73ECr3QVB_K9nO94-6" value="Clicks on email icon" style="whiteSpace=wrap;html=1;" vertex="1" parent="1">
          <mxGeometry x="465" y="260" width="155" height="70" as="geometry" />
        </mxCell>
        <mxCell id="nkAx73ECr3QVB_K9nO94-8" value="Clicks on text icon" style="whiteSpace=wrap;html=1;" vertex="1" parent="1">
          <mxGeometry x="140" y="260" width="120" height="60" as="geometry" />
        </mxCell>
        <mxCell id="nkAx73ECr3QVB_K9nO94-13" value="" style="endArrow=classic;html=1;rounded=0;exitX=0;exitY=0.5;exitDx=0;exitDy=0;entryX=0.33;entryY=0.057;entryDx=0;entryDy=0;entryPerimeter=0;" edge="1" parent="1" source="nkAx73ECr3QVB_K9nO94-2" target="nkAx73ECr3QVB_K9nO94-8">
          <mxGeometry width="50" height="50" relative="1" as="geometry">
            <mxPoint x="400" y="330" as="sourcePoint" />
            <mxPoint x="450" y="280" as="targetPoint" />
          </mxGeometry>
        </mxCell>
        <mxCell id="nkAx73ECr3QVB_K9nO94-14" value="" style="endArrow=classic;html=1;rounded=0;entryX=0.435;entryY=-0.1;entryDx=0;entryDy=0;entryPerimeter=0;" edge="1" parent="1" target="nkAx73ECr3QVB_K9nO94-6">
          <mxGeometry width="50" height="50" relative="1" as="geometry">
            <mxPoint x="465" y="190" as="sourcePoint" />
            <mxPoint x="515" y="140" as="targetPoint" />
          </mxGeometry>
        </mxCell>
        <mxCell id="nkAx73ECr3QVB_K9nO94-15" value="User accepts the invite.&amp;nbsp;" style="rhombus;whiteSpace=wrap;html=1;" vertex="1" parent="1">
          <mxGeometry x="320" y="340" width="80" height="80" as="geometry" />
        </mxCell>
        <mxCell id="nkAx73ECr3QVB_K9nO94-16" value="Yes" style="text;html=1;align=center;verticalAlign=middle;whiteSpace=wrap;rounded=0;" vertex="1" parent="1">
          <mxGeometry x="270" y="360" width="60" height="30" as="geometry" />
        </mxCell>
        <mxCell id="nkAx73ECr3QVB_K9nO94-17" value="No" style="text;html=1;align=center;verticalAlign=middle;whiteSpace=wrap;rounded=0;" vertex="1" parent="1">
          <mxGeometry x="430" y="365" width="60" height="30" as="geometry" />
        </mxCell>
        <mxCell id="nkAx73ECr3QVB_K9nO94-18" value="" style="endArrow=classic;html=1;rounded=0;exitX=1;exitY=0.5;exitDx=0;exitDy=0;" edge="1" parent="1" source="nkAx73ECr3QVB_K9nO94-15">
          <mxGeometry width="50" height="50" relative="1" as="geometry">
            <mxPoint x="400" y="330" as="sourcePoint" />
            <mxPoint x="530" y="380" as="targetPoint" />
          </mxGeometry>
        </mxCell>
        <mxCell id="nkAx73ECr3QVB_K9nO94-19" value="" style="endArrow=classic;html=1;rounded=0;exitX=0.867;exitY=0.727;exitDx=0;exitDy=0;exitPerimeter=0;" edge="1" parent="1" source="nkAx73ECr3QVB_K9nO94-21">
          <mxGeometry width="50" height="50" relative="1" as="geometry">
            <mxPoint x="400" y="330" as="sourcePoint" />
            <mxPoint x="150" y="375" as="targetPoint" />
          </mxGeometry>
        </mxCell>
        <mxCell id="nkAx73ECr3QVB_K9nO94-20" value="Workflow to initiate code&amp;nbsp;" style="rounded=0;whiteSpace=wrap;html=1;" vertex="1" parent="1">
          <mxGeometry x="300" y="260" width="120" height="60" as="geometry" />
        </mxCell>
        <mxCell id="nkAx73ECr3QVB_K9nO94-22" value="Extract the referral Id and create new account.&amp;nbsp;&amp;nbsp;" style="rounded=0;whiteSpace=wrap;html=1;" vertex="1" parent="1">
          <mxGeometry x="40" y="480" width="120" height="60" as="geometry" />
        </mxCell>
        <mxCell id="nkAx73ECr3QVB_K9nO94-23" value="" style="endArrow=classic;html=1;rounded=0;exitX=0.5;exitY=1;exitDx=0;exitDy=0;entryX=0.5;entryY=0;entryDx=0;entryDy=0;" edge="1" parent="1" source="nkAx73ECr3QVB_K9nO94-21" target="nkAx73ECr3QVB_K9nO94-22">
          <mxGeometry width="50" height="50" relative="1" as="geometry">
            <mxPoint x="400" y="530" as="sourcePoint" />
            <mxPoint x="450" y="480" as="targetPoint" />
          </mxGeometry>
        </mxCell>
        <mxCell id="nkAx73ECr3QVB_K9nO94-24" value="Persist status of referral&amp;nbsp;" style="shape=cylinder3;whiteSpace=wrap;html=1;boundedLbl=1;backgroundOutline=1;size=15;" vertex="1" parent="1">
          <mxGeometry x="70" y="600" width="60" height="80" as="geometry" />
        </mxCell>
        <mxCell id="nkAx73ECr3QVB_K9nO94-25" value="" style="endArrow=classic;html=1;rounded=0;exitX=0.5;exitY=1;exitDx=0;exitDy=0;" edge="1" parent="1" source="nkAx73ECr3QVB_K9nO94-22" target="nkAx73ECr3QVB_K9nO94-24">
          <mxGeometry width="50" height="50" relative="1" as="geometry">
            <mxPoint x="380" y="530" as="sourcePoint" />
            <mxPoint x="430" y="480" as="targetPoint" />
          </mxGeometry>
        </mxCell>
        <mxCell id="nkAx73ECr3QVB_K9nO94-26" value="Checks status." style="rounded=0;whiteSpace=wrap;html=1;" vertex="1" parent="1">
          <mxGeometry x="110" y="90" width="120" height="60" as="geometry" />
        </mxCell>
        <mxCell id="nkAx73ECr3QVB_K9nO94-27" value="" style="endArrow=classic;html=1;rounded=0;exitX=0;exitY=0.5;exitDx=0;exitDy=0;entryX=1.02;entryY=0.623;entryDx=0;entryDy=0;entryPerimeter=0;" edge="1" parent="1" source="nkAx73ECr3QVB_K9nO94-1" target="nkAx73ECr3QVB_K9nO94-26">
          <mxGeometry width="50" height="50" relative="1" as="geometry">
            <mxPoint x="380" y="230" as="sourcePoint" />
            <mxPoint x="430" y="180" as="targetPoint" />
          </mxGeometry>
        </mxCell>
        <mxCell id="nkAx73ECr3QVB_K9nO94-28" value="Backend API reads from DB." style="shape=cylinder3;whiteSpace=wrap;html=1;boundedLbl=1;backgroundOutline=1;size=15;" vertex="1" parent="1">
          <mxGeometry x="40" y="170" width="60" height="80" as="geometry" />
        </mxCell>
        <mxCell id="nkAx73ECr3QVB_K9nO94-31" value="Success message sent back to initial referee.&amp;nbsp;" style="rounded=0;whiteSpace=wrap;html=1;" vertex="1" parent="1">
          <mxGeometry x="280" y="530" width="120" height="60" as="geometry" />
        </mxCell>
        <mxCell id="nkAx73ECr3QVB_K9nO94-32" value="" style="endArrow=classic;html=1;rounded=0;" edge="1" parent="1" target="nkAx73ECr3QVB_K9nO94-31">
          <mxGeometry width="50" height="50" relative="1" as="geometry">
            <mxPoint x="100" y="570" as="sourcePoint" />
            <mxPoint x="430" y="380" as="targetPoint" />
          </mxGeometry>
        </mxCell>
        <mxCell id="nkAx73ECr3QVB_K9nO94-34" value="" style="endArrow=classic;html=1;rounded=0;exitX=0.61;exitY=-0.003;exitDx=0;exitDy=0;exitPerimeter=0;entryX=0.5;entryY=1;entryDx=0;entryDy=0;entryPerimeter=0;" edge="1" parent="1" source="nkAx73ECr3QVB_K9nO94-31" target="nkAx73ECr3QVB_K9nO94-28">
          <mxGeometry width="50" height="50" relative="1" as="geometry">
            <mxPoint x="380" y="430" as="sourcePoint" />
            <mxPoint x="430" y="380" as="targetPoint" />
          </mxGeometry>
        </mxCell>
        <mxCell id="nkAx73ECr3QVB_K9nO94-35" value="Message saved to DB." style="text;html=1;align=center;verticalAlign=middle;whiteSpace=wrap;rounded=0;" vertex="1" parent="1">
          <mxGeometry x="350" y="480" width="90" height="30" as="geometry" />
        </mxCell>
        <mxCell id="nkAx73ECr3QVB_K9nO94-36" value="" style="endArrow=classic;html=1;rounded=0;exitX=1;exitY=0.5;exitDx=0;exitDy=0;entryX=0;entryY=0.667;entryDx=0;entryDy=0;entryPerimeter=0;" edge="1" parent="1" source="nkAx73ECr3QVB_K9nO94-8" target="nkAx73ECr3QVB_K9nO94-20">
          <mxGeometry width="50" height="50" relative="1" as="geometry">
            <mxPoint x="380" y="330" as="sourcePoint" />
            <mxPoint x="430" y="280" as="targetPoint" />
          </mxGeometry>
        </mxCell>
        <mxCell id="nkAx73ECr3QVB_K9nO94-38" value="" style="endArrow=classic;html=1;rounded=0;entryX=1;entryY=0;entryDx=0;entryDy=52.5;entryPerimeter=0;exitX=0.5;exitY=1;exitDx=0;exitDy=0;" edge="1" parent="1" source="nkAx73ECr3QVB_K9nO94-20" target="nkAx73ECr3QVB_K9nO94-28">
          <mxGeometry width="50" height="50" relative="1" as="geometry">
            <mxPoint x="380" y="330" as="sourcePoint" />
            <mxPoint x="430" y="280" as="targetPoint" />
          </mxGeometry>
        </mxCell>
        <mxCell id="nkAx73ECr3QVB_K9nO94-39" value="" style="endArrow=classic;html=1;rounded=0;exitX=0.5;exitY=1;exitDx=0;exitDy=0;entryX=0.5;entryY=0;entryDx=0;entryDy=0;" edge="1" parent="1" source="nkAx73ECr3QVB_K9nO94-8" target="nkAx73ECr3QVB_K9nO94-15">
          <mxGeometry width="50" height="50" relative="1" as="geometry">
            <mxPoint x="380" y="330" as="sourcePoint" />
            <mxPoint x="430" y="280" as="targetPoint" />
          </mxGeometry>
        </mxCell>
        <mxCell id="nkAx73ECr3QVB_K9nO94-40" value="" style="endArrow=classic;html=1;rounded=0;entryX=0.5;entryY=0;entryDx=0;entryDy=0;" edge="1" parent="1" target="nkAx73ECr3QVB_K9nO94-15">
          <mxGeometry width="50" height="50" relative="1" as="geometry">
            <mxPoint x="540" y="330" as="sourcePoint" />
            <mxPoint x="590" y="280" as="targetPoint" />
          </mxGeometry>
        </mxCell>
        <mxCell id="nkAx73ECr3QVB_K9nO94-41" value="" style="endArrow=classic;html=1;rounded=0;entryX=0;entryY=0.5;entryDx=0;entryDy=0;" edge="1" parent="1" source="nkAx73ECr3QVB_K9nO94-28" target="nkAx73ECr3QVB_K9nO94-26">
          <mxGeometry width="50" height="50" relative="1" as="geometry">
            <mxPoint x="380" y="330" as="sourcePoint" />
            <mxPoint x="430" y="280" as="targetPoint" />
          </mxGeometry>
        </mxCell>
        <mxCell id="nkAx73ECr3QVB_K9nO94-42" value="" style="endArrow=classic;html=1;rounded=0;exitX=0.867;exitY=0.727;exitDx=0;exitDy=0;exitPerimeter=0;" edge="1" parent="1" source="nkAx73ECr3QVB_K9nO94-16" target="nkAx73ECr3QVB_K9nO94-21">
          <mxGeometry width="50" height="50" relative="1" as="geometry">
            <mxPoint x="322" y="382" as="sourcePoint" />
            <mxPoint x="150" y="375" as="targetPoint" />
          </mxGeometry>
        </mxCell>
        <mxCell id="nkAx73ECr3QVB_K9nO94-21" value="User open the app or downloads the app based on them.&amp;nbsp;" style="rounded=0;whiteSpace=wrap;html=1;" vertex="1" parent="1">
          <mxGeometry x="40" y="350" width="120" height="60" as="geometry" />
        </mxCell>
      </root>
    </mxGraphModel>
  </diagram>
</mxfile>
